<svg width="61" height="28" viewBox="0 0 61 28" fill="none" xmlns="http://www.w3.org/2000/svg">
<path fill-rule="evenodd" clip-rule="evenodd" d="M45.2101 0.00799973C49.2507 -0.11 52.2117 1.094 54.6054 2.85C56.7614 4.432 58.7399 6.903 59.5745 9.943C60.704 14.063 60.1224 16.535 58.6715 19.913C58.1664 21.09 56.8451 22.648 56.0676 23.417C51.373 28.057 43.8357 28.923 38.0983 25.269C37.2484 24.728 35.2485 23.109 34.8383 22.463C35.0495 22.041 38.9891 18.284 39.2105 18.203C39.6472 18.463 40.1941 19.122 40.6553 19.509C41.1981 19.964 41.641 20.266 42.3236 20.597C46.6213 22.675 51.8393 20.535 53.2933 16.714C56.4441 8.437 46.2305 2.552 40.0268 8.601L26.3134 22.04C24.541 23.771 23.0309 25.47 20.0403 26.674C10.9317 30.34 1.30884 24.136 0.478278 15.505C-0.106379 9.448 2.95465 4.19 8.19207 1.654C13.6632 -0.997 20.2403 0.00999928 24.6033 4.2L25.393 4.977L25.7297 5.309C27.2786 6.829 29.8917 9.361 30.2539 9.464C30.5702 9.279 35.8199 4.061 36.4658 3.487C38.4044 1.763 41.7379 0.109 45.2101 0.00799973ZM9.37567 8.155C5.73611 11.091 5.66366 16.738 9.41138 19.813C10.9143 21.046 13.4417 22.003 16.1242 21.471C18.8281 20.936 19.9454 19.626 21.3922 18.211C21.981 17.638 25.5573 14.259 25.6981 13.866C25.4359 13.386 21.8371 10.112 21.3565 9.644C19.8332 8.165 18.7669 6.975 16.0212 6.439C13.3458 5.916 10.9286 6.902 9.37567 8.155Z" fill="#1253A2"/>
</svg>
