<svg width="60" height="55" viewBox="0 0 60 55" fill="none" xmlns="http://www.w3.org/2000/svg">
<path d="M33.8104 44.904H25.8856C25.6229 44.904 25.371 45.0068 25.1853 45.1899C24.9995 45.3729 24.8952 45.6211 24.8952 45.88V49.785C24.8952 50.0438 24.9995 50.2921 25.1853 50.4751C25.371 50.6582 25.6229 50.761 25.8856 50.761H33.8104C34.0728 50.7605 34.3243 50.6574 34.5097 50.4745C34.6952 50.2915 34.7995 50.0436 34.7998 49.785V45.88C34.7998 45.6211 34.6954 45.3729 34.5097 45.1899C34.324 45.0068 34.0731 44.904 33.8104 44.904ZM32.819 48.809H26.8759V46.856H32.819V48.809ZM41.7343 44.904H37.7718C37.5092 44.904 37.2573 45.0068 37.0715 45.1899C36.8858 45.3729 36.7815 45.6211 36.7815 45.88V49.785C36.7815 50.0438 36.8858 50.2921 37.0715 50.4751C37.2573 50.6582 37.5092 50.761 37.7718 50.761H41.7353C41.9978 50.7607 42.2496 50.6578 42.4353 50.4748C42.6209 50.2919 42.7254 50.0438 42.7256 49.785V45.88C42.7256 45.6211 42.6213 45.3729 42.4356 45.1899C42.2498 45.0068 41.9969 44.904 41.7343 44.904ZM40.7439 48.809H38.7622V46.856H40.7439V48.809ZM49.6581 44.904H45.6957C45.433 44.904 45.1811 45.0068 44.9954 45.1899C44.8097 45.3729 44.7053 45.6211 44.7053 45.88V49.785C44.7053 50.0438 44.8097 50.2921 44.9954 50.4751C45.1811 50.6582 45.433 50.761 45.6957 50.761H49.6581C49.9207 50.7607 50.1724 50.6578 50.3581 50.4748C50.5437 50.2919 50.6482 50.0438 50.6484 49.785V45.88C50.6482 45.6212 50.5437 45.3731 50.3581 45.1901C50.1724 45.0072 49.9207 44.9043 49.6581 44.904ZM48.6677 48.809H46.686V46.856H48.6677V48.809ZM21.9231 44.904H17.9607C17.698 44.904 17.4461 45.0068 17.2604 45.1899C17.0747 45.3729 16.9704 45.6211 16.9704 45.88V49.785C16.9704 50.0438 17.0747 50.2921 17.2604 50.4751C17.4461 50.6582 17.698 50.761 17.9607 50.761H21.9231C22.1857 50.7607 22.4375 50.6578 22.6231 50.4748C22.8088 50.2919 22.9132 50.0438 22.9135 49.785V45.88C22.9132 45.6212 22.8088 45.3731 22.6231 45.1901C22.4375 45.0072 22.1857 44.9043 21.9231 44.904ZM20.9338 48.81H18.9531V46.857H20.9338V48.81ZM13.9993 44.904H10.0359C9.7732 44.904 9.5213 45.0068 9.33557 45.1899C9.14984 45.3729 9.0455 45.6211 9.0455 45.88V49.785C9.0455 50.0438 9.14984 50.2921 9.33557 50.4751C9.5213 50.6582 9.7732 50.761 10.0359 50.761H13.9983C14.2609 50.7607 14.5126 50.6578 14.6983 50.4748C14.8839 50.2919 14.9884 50.0438 14.9886 49.785V45.88C14.9886 45.6211 14.8843 45.3729 14.6986 45.1899C14.5128 45.0068 14.2609 44.904 13.9983 44.904H13.9993ZM13.0079 48.809H11.0272V46.856H13.0079V48.809Z" fill="#1253A2"/>
<path d="M56.5916 1.952H43.6054C42.3133 0.700675 40.5742 -0.000488281 38.7627 -0.000488281C36.9511 -0.000488281 35.2121 0.700675 33.92 1.952H3.10338C2.31532 1.95226 1.55962 2.26097 1.00247 2.81024C0.445313 3.3595 0.132324 4.10435 0.132324 4.881L0.132324 51.737C0.132324 52.5136 0.445313 53.2585 1.00247 53.8078C1.55962 54.357 2.31532 54.6657 3.10338 54.666H56.5926C57.3807 54.6657 58.1364 54.357 58.6935 53.8078C59.2507 53.2585 59.5636 52.5136 59.5636 51.737V4.881C59.5636 4.10435 59.2507 3.3595 58.6935 2.81024C58.1364 2.26097 57.3796 1.95226 56.5916 1.952ZM53.6205 7.81V17.572H25.8856V7.81H31.9687C32.8089 11.203 37.5628 14.96 38.1534 15.413C38.3273 15.5466 38.5416 15.6192 38.7622 15.6192C38.9828 15.6192 39.197 15.5466 39.371 15.413C39.9656 14.959 44.7205 11.203 45.5566 7.81H53.6205ZM53.6205 25.382H42.7246C42.4619 25.382 42.21 25.4848 42.0243 25.6679C41.8386 25.8509 41.7343 26.0991 41.7343 26.358V41H35.7911V26.357C35.7911 26.2287 35.7655 26.1017 35.7156 25.9833C35.6658 25.8648 35.5928 25.7572 35.5007 25.6665C35.4086 25.5759 35.2993 25.504 35.1791 25.455C35.0588 25.406 34.9299 25.3809 34.7998 25.381H24.8952C24.6325 25.381 24.3806 25.4838 24.1949 25.6669C24.0092 25.8499 23.9049 26.0981 23.9049 26.357V40.999H17.9607V26.357C17.9607 26.0981 17.8564 25.8499 17.6706 25.6669C17.4849 25.4838 17.233 25.381 16.9704 25.381H6.07444V19.523H16.9704C17.2329 19.5227 17.4847 19.4198 17.6703 19.2368C17.856 19.0539 17.9604 18.8058 17.9607 18.547V7.81H23.9049V18.548C23.9051 18.8068 24.0096 19.0549 24.1952 19.2378C24.3809 19.4208 24.6326 19.5237 24.8952 19.524H53.6205V25.382ZM53.6205 27.334V41H43.7139V27.333H53.6195L53.6205 27.334ZM33.8094 40.999H25.8845V27.333H33.8094V40.999ZM6.07444 27.333H15.98V40.999H6.07444V27.333ZM6.07444 17.571V7.81H15.98V17.572H6.07444V17.571ZM38.7622 1.952C40.075 1.95438 41.3334 2.46939 42.2617 3.38424C43.19 4.29909 43.7125 5.53921 43.715 6.833C43.715 8.658 40.891 11.616 38.7632 13.385C36.6333 11.616 33.8094 8.658 33.8094 6.833C33.8121 5.53938 34.3348 4.29952 35.2631 3.38488C36.1913 2.47025 37.4495 1.95438 38.7622 1.952ZM57.5819 51.737C57.5819 51.9958 57.4776 52.2441 57.2919 52.4271C57.1061 52.6102 56.8542 52.713 56.5916 52.713H3.10338C2.84073 52.713 2.58882 52.6102 2.4031 52.4271C2.21737 52.2441 2.11303 51.9958 2.11303 51.737V4.881C2.11303 4.341 2.55646 3.905 3.10338 3.905H32.5065C32.2082 4.52218 32.0064 5.1803 31.9078 5.857H6.07444C5.54921 5.85726 5.04556 6.063 4.67417 6.42902C4.30277 6.79503 4.094 7.29138 4.09374 7.809V41C4.09374 41.5178 4.30238 42.0144 4.67381 42.3806C5.04524 42.7469 5.54903 42.9527 6.07444 42.953H53.6195C54.1451 42.953 54.6491 42.7472 55.0208 42.381C55.3924 42.0147 55.6012 41.518 55.6012 41V7.81C55.601 7.2922 55.392 6.79571 55.0204 6.42967C54.6488 6.06362 54.1449 5.858 53.6195 5.858H45.6165C45.518 5.18129 45.3162 4.52318 45.0178 3.906H56.5906C56.8532 3.906 57.1051 4.00883 57.2908 4.19186C57.4766 4.3749 57.5809 4.62315 57.5809 4.882V51.738L57.5819 51.737Z" fill="black"/>
<path d="M13.0089 21.476H16.9703V23.428H13.0089V21.476ZM9.04651 21.476H11.0272V23.428H9.04651V21.476ZM19.9424 14.643H21.9231V18.547H19.9424V14.643ZM19.9424 10.738H21.9231V12.69H19.9424V10.738ZM19.9424 26.357H21.9231V30.262H19.9424V26.357ZM19.9424 32.214H21.9231V36.119H19.9424V32.214ZM24.8952 21.476H28.8566V23.428H24.8952V21.476ZM30.8373 21.476H34.7997V23.428H30.8383L30.8373 21.476ZM36.7815 21.476H40.7439V23.428H36.7815V21.476ZM42.7246 21.476H46.686V23.428H42.7246V21.476ZM37.7718 26.357H39.7525V30.262H37.7718V26.357ZM37.7718 32.214H39.7525V36.119H37.7718V32.214Z" fill="black"/>
<path d="M38.7622 9.76199C39.5504 9.76199 40.3064 9.4534 40.8637 8.90411C41.4211 8.35481 41.7342 7.60981 41.7342 6.83299C41.7342 6.05617 41.4211 5.31117 40.8637 4.76188C40.3064 4.21258 39.5504 3.90399 38.7622 3.90399C37.9739 3.90399 37.218 4.21258 36.6606 4.76188C36.1032 5.31117 35.7901 6.05617 35.7901 6.83299C35.7901 7.60981 36.1032 8.35481 36.6606 8.90411C37.218 9.4534 37.9739 9.76199 38.7622 9.76199ZM38.7622 5.85699C38.8948 5.85281 39.027 5.87494 39.1508 5.92208C39.2746 5.96922 39.3875 6.0404 39.4829 6.1314C39.5782 6.2224 39.654 6.33135 39.7058 6.45179C39.7575 6.57223 39.7842 6.70169 39.7842 6.83249C39.7842 6.96329 39.7575 7.09276 39.7058 7.21319C39.654 7.33363 39.5782 7.44259 39.4829 7.53358C39.3875 7.62458 39.2746 7.69577 39.1508 7.7429C39.027 7.79004 38.8948 7.81218 38.7622 7.80799C38.5051 7.79988 38.2614 7.69355 38.0825 7.51149C37.9036 7.32944 37.8035 7.08593 37.8035 6.83249C37.8035 6.57905 37.9036 6.33555 38.0825 6.15349C38.2614 5.97143 38.5051 5.8651 38.7622 5.85699Z" fill="#1253A2"/>
</svg>
