<svg width="55" height="66" viewBox="0 0 55 66" fill="none" xmlns="http://www.w3.org/2000/svg">
<g clip-path="url(#clip0_1_168)">
<path fill-rule="evenodd" clip-rule="evenodd" d="M27.9211 0C28.071 0.0874807 34.665 2.04537 41.1197 3.95524L41.9253 4.19359C47.151 5.7394 52.1036 7.20074 53.2519 7.54861C53.5696 7.6449 53.8001 7.75722 53.9601 7.9355C54.2027 8.20576 54.1599 8.34665 54.3137 8.66349V35.0065C54.0333 35.7745 54.6453 43.7289 49.4987 51.2917C48.8228 52.2849 48.3468 52.9332 47.5805 53.7916L46.3154 55.1474C45.1924 56.2817 43.9393 57.3491 42.4972 58.375C39.6976 60.3665 36.5159 61.9374 33.2092 63.2053C32.3254 63.5442 31.4953 63.8389 30.5891 64.1457C29.9503 64.362 28.4045 64.7656 27.9457 65.0351H27.3667C26.987 64.8122 25.2609 64.3385 24.6934 64.1474C23.7882 63.8425 22.9554 63.5427 22.0712 63.2089C17.3235 61.4168 12.4561 58.7158 8.94391 55.1177L7.25146 53.2632C4.36926 49.8029 2.60465 45.7457 1.67454 41.2532C1.47232 40.2765 1.31163 39.2129 1.20648 38.1949C1.15439 37.6911 1.03701 35.1469 0.970581 34.9589V8.66202C1.12594 8.34376 1.07983 8.2089 1.32567 7.93711C1.48999 7.75544 1.73026 7.64616 2.03547 7.55405C2.6036 7.38257 3.16686 7.21883 3.72513 7.04843C9.30719 5.34523 15.0251 3.69458 20.6245 2.02774C20.821 1.96921 22.2769 1.54464 23.7859 1.09836L24.3519 0.930662C25.8553 0.484335 27.2611 0.0593392 27.3629 0H27.9211ZM27.6411 2.64288C27.3832 2.64097 25.0425 3.38932 24.6129 3.52023C18.663 5.33396 12.5582 7.04127 6.61084 8.8641C6.08025 9.02676 3.88044 9.64215 3.58334 9.78255C3.5223 12.9304 3.581 16.1391 3.581 19.2937V28.8323C3.581 35.1708 3.40849 40.25 5.77151 45.7254C6.78393 48.0711 8.0179 50.0589 9.39398 51.6941C10.0795 52.5088 10.9643 53.4781 11.7453 54.1464L12.3828 54.711C15.5347 57.5125 19.8789 59.6669 23.9695 61.1756C24.4613 61.3569 27.3083 62.3853 27.6413 62.3823C28.0085 62.379 30.7578 61.3698 31.2689 61.1851C38.8662 58.4396 46.2706 53.5613 49.5431 45.809C51.9193 40.1799 51.6996 35.3641 51.7043 28.8864C51.7065 25.7069 51.7055 22.5274 51.7077 19.3479C51.7099 16.1687 51.7596 12.9495 51.7086 9.77518L48.7166 8.87551C47.7212 8.58247 46.7207 8.29006 45.717 7.98306C43.7127 7.37008 41.723 6.8148 39.7162 6.20272C39.1756 6.03783 27.9053 2.64487 27.6411 2.64288Z" fill="#1253A2"/>
<path fill-rule="evenodd" clip-rule="evenodd" d="M46.9079 13.8742L46.9083 32.084C46.9083 34.1038 46.9174 35.9989 46.664 37.9826C45.3031 48.6352 37.201 53.5898 28.5448 56.6571C28.0274 56.8404 27.8881 56.9272 27.311 56.9489C25.8615 57.0032 25.6261 58.9355 26.9065 59.4184C27.8382 59.7698 28.5234 59.3787 29.3622 59.0884C36.618 56.5777 42.1133 53.4644 45.8156 47.8267C47.3925 45.4254 48.5847 42.3279 49.1272 38.9543C49.7237 35.2449 49.5132 30.9808 49.5132 27.1522C49.5132 23.0875 49.5132 19.0228 49.5132 14.9581C49.5132 12.9836 49.8511 12.0086 48.3597 11.5585L32.9413 6.97073C31.3778 6.51081 29.7777 6.05487 28.2101 5.56609C27.211 5.25453 26.428 5.7674 26.3513 6.60972C26.2486 7.73758 27.2683 7.96112 27.9421 8.15807C31.1215 9.08758 34.2996 10.0367 37.4524 10.9792L46.6252 13.6985C46.836 13.7615 46.8212 13.7207 46.9079 13.8742Z" fill="black"/>
<path fill-rule="evenodd" clip-rule="evenodd" d="M7.31642 12.1314C6.26672 12.4441 6.37512 13.3342 6.37512 14.4703V30.7291C6.37512 32.8393 6.32237 34.9848 6.51398 37.0708C7.03549 42.7476 8.92306 46.9032 12.5159 50.6769C13.1794 51.3738 14.3774 52.3608 15.1587 52.9504C15.5091 53.2149 15.8572 53.4233 16.4181 53.2718C17.2748 53.0407 17.6795 52.0118 17.0799 51.2184L15.7335 50.1081C14.6083 49.2172 13.1143 47.5977 12.233 46.24C8.71768 40.8239 8.97248 36.1219 8.97248 29.9161L8.97301 13.6562C8.97425 13.1007 8.91423 12.7476 8.59104 12.4341C8.30095 12.1526 7.83596 11.9767 7.31642 12.1314Z" fill="black"/>
<path fill-rule="evenodd" clip-rule="evenodd" d="M23.6827 39.3209C21.8203 37.5772 19.3858 35.0973 17.5085 33.2368C16.9639 32.6971 15.9783 32.4587 15.4149 33.2039C14.707 34.1405 15.4103 34.8279 15.8733 35.2819L22.0601 41.3788C22.4371 41.7484 23.0662 42.6404 24.0223 42.3877C24.5746 42.2418 25.3638 41.3224 25.7188 40.9735L38.1259 28.7583C38.6524 28.2394 39.1376 27.7589 39.6664 27.2418C40.9214 26.0145 39.7072 24.6043 38.5375 24.9346C37.9314 25.1058 36.5426 26.6489 36.0718 27.1136C33.9975 29.1608 31.9595 31.164 29.8851 33.2106C27.815 35.253 25.7744 37.3241 23.6827 39.3209Z" fill="#1253A2"/>
</g>
<defs>
<clipPath id="clip0_1_168">
<rect width="53.7794" height="66" fill="white" transform="translate(0.970581)"/>
</clipPath>
</defs>
</svg>
