<svg width="61" height="59" viewBox="0 0 61 59" fill="none" xmlns="http://www.w3.org/2000/svg">
<g clip-path="url(#clip0_1_178)">
<path fill-rule="evenodd" clip-rule="evenodd" d="M9.24329 8.18431C12.816 6.87009 16.1209 9.41993 16.2221 12.7027C18.0975 12.5614 19.2972 12.3819 21.1897 12.721C23.3804 13.1134 25.8263 14.2357 27.4464 15.6366C27.6115 15.7794 27.6576 15.8074 27.8028 15.9261C30.7069 18.3005 32.811 22.1245 34.6656 25.2802C36.2977 28.0572 38.402 32.6959 41.0445 34.4754C42.7983 35.6563 43.5261 35.4907 44.6834 36.0695C49.0253 38.241 48.947 43.5595 44.6512 45.1253C43.3773 45.5897 42.1127 46.0414 40.8446 46.492C38.5671 47.3014 35.3638 48.5399 33.1947 49.226C33.4792 51.7391 33.2836 53.1044 32.1123 54.9642C29.6257 58.9124 23.9182 59.867 20.0533 56.44C19.7805 56.1983 19.4736 55.845 19.2299 55.5243L18.5233 54.5111C17.9808 54.6465 17.2756 54.9474 16.7202 55.1477L7.72392 58.3714C6.34377 58.8777 5.28705 59.2189 3.71953 58.7212C0.924728 57.8338 0.0517775 55.0365 0.79486 52.4406C0.973224 51.8174 1.26375 51.297 1.57895 50.773L1.77033 50.4574C2.50995 49.2391 3.28757 47.8894 3.03885 45.1138C2.80241 42.4751 2.06431 39.5461 1.41303 36.5371L1.26455 35.8414C-0.0531444 29.569 -0.801088 23.0212 4.29288 18.0816C5.62343 16.7913 6.31072 16.587 7.03141 15.9861C6.90822 15.7048 6.63945 15.3711 6.46028 15.0151C6.28681 14.6703 6.1682 14.3191 6.08479 13.9177C5.57705 11.4743 6.97967 9.01694 9.24329 8.18431ZM10.7492 10.5946C8.87116 10.9056 8.33299 12.937 9.03805 14.0132C9.44375 14.6325 10.0529 14.7907 10.2646 15.6841C10.4882 16.6278 9.9761 17.3618 9.45335 17.7295C8.25151 18.5746 7.35808 18.8517 6.12766 20.1465C5.10682 21.2208 4.41004 22.0889 3.82639 23.635C1.61064 29.5043 4.74404 37.2645 5.58627 43.1953C6.16292 47.2563 5.75246 49.4623 3.82931 52.3588C3.15146 53.3796 2.81162 55.7462 4.74367 56.1758C5.57751 56.3613 6.39045 55.958 7.08953 55.6993C13.4192 53.3574 19.8911 51.1618 26.2699 48.823C31.944 46.7426 37.6204 44.757 43.3044 42.711C44.1504 42.4066 44.589 42.2013 44.953 41.5189C45.4331 40.6189 45.0341 39.9543 44.5634 39.3868C43.5809 38.2024 42.2223 38.2564 40.6911 37.4439C37.8716 35.9477 36.747 34.2193 35.0648 31.5399C32.7658 27.878 29.8793 21.4872 26.5395 18.5119C26.3872 18.3762 26.3536 18.3262 26.1837 18.1612C26.0417 18.0231 25.904 17.9396 25.7557 17.8135C20.7528 13.5567 16.101 16.1522 14.4431 15.3387C12.5188 14.3945 14.1606 12.7051 12.8529 11.2752C12.4609 10.8465 11.6171 10.4509 10.7492 10.5946ZM30.5541 50.2028L21.2 53.5385C22.1578 55.3097 24.9721 56.3894 27.2723 55.507C29.2497 54.7485 30.75 52.967 30.5541 50.2028Z" fill="black"/>
<path fill-rule="evenodd" clip-rule="evenodd" d="M35.7892 0.029123C35.166 0.0611597 34.6326 0.102125 34.2725 0.418521C33.971 0.683476 33.7056 1.28194 33.9009 1.85348C34.3139 3.06205 35.5782 2.72095 36.8922 2.73425C43.398 2.7999 48.847 5.74815 52.5372 10.2268C57.1322 15.8036 58.37 23.9574 55.2033 30.8351C54.9896 31.2992 54.6683 31.7156 54.8187 32.3479C54.9296 32.8145 55.2904 33.2046 55.7631 33.3352C57.0533 33.6917 57.4612 32.5578 57.8318 31.6962C60.8691 24.6346 60.2288 16.7257 56.083 10.444C55.5344 9.61281 55.0425 8.95907 54.4763 8.25069L52.6072 6.2569C48.2623 2.28827 42.3097 -0.306463 35.7892 0.029123Z" fill="#1253A2"/>
<path fill-rule="evenodd" clip-rule="evenodd" d="M35.9915 7.13293C35.5528 7.15681 35.2352 7.15809 34.9202 7.39184C33.893 8.154 34.3433 9.62084 35.4116 9.83502C36.4117 10.0356 37.5902 9.57444 40.2937 10.3329C45.7548 11.8649 49.5773 16.7077 49.748 22.2538C49.7977 23.8678 49.5376 25.4801 49.0458 26.8761C48.881 27.3437 48.3486 28.4022 48.3138 28.7814C48.2418 29.5658 48.8247 30.21 49.5466 30.2682C50.4673 30.3424 50.7984 29.7642 51.0944 29.1509C53.3664 24.4432 52.7928 18.5775 50.0827 14.3728C47.1198 9.77572 41.8111 6.81638 35.9915 7.13293Z" fill="#1253A2"/>
<path fill-rule="evenodd" clip-rule="evenodd" d="M35.8083 14.3117C35.1108 14.5289 34.5564 15.2858 34.9549 16.1682C35.3616 17.0686 36.1389 16.8765 37.2019 16.9644C41.248 17.2989 43.5428 21.4246 42.1327 24.7968C41.954 25.2242 41.7488 25.4783 41.831 26.0202C41.9415 26.7493 42.7308 27.3549 43.6145 27.0902C45.2088 26.6129 46.2386 21.6514 43.972 18.1574C43.2464 17.0389 42.1341 15.907 40.8235 15.2475C39.7531 14.7089 37.2649 13.858 35.8083 14.3117Z" fill="#1253A2"/>
</g>
<defs>
<clipPath id="clip0_1_178">
<rect width="59.8676" height="59" fill="white" transform="translate(0.294121)"/>
</clipPath>
</defs>
</svg>
