<svg width="54" height="61" viewBox="0 0 54 61" fill="none" xmlns="http://www.w3.org/2000/svg">
<g clip-path="url(#clip0_1_188)">
<path fill-rule="evenodd" clip-rule="evenodd" d="M53.4754 0L53.4706 60.0795H49.6286L49.5642 60.0124L49.5317 59.9808C49.5222 59.9719 49.509 59.9598 49.499 59.951L42.968 55.1213C42.7107 54.9319 42.3134 54.6004 42.0442 54.4652C41.7604 54.6167 41.3681 54.9423 41.0886 55.1486C40.0702 55.9005 35.1774 59.4348 34.558 59.982C34.4957 60.0371 34.5046 60.028 34.4586 60.0795H34.3881L34.3234 60.0126C34.3146 60.0041 34.3006 59.9901 34.2909 59.981L27.7279 55.1208C27.4741 54.9337 27.068 54.5979 26.8034 54.4657C26.4786 54.6405 26.1947 54.9073 25.8505 55.1502L22.979 57.2498C22.6301 57.5039 19.4035 59.8354 19.1705 60.0795H19.1186L11.5627 54.4657L4.41569 59.7249C4.3148 59.7993 4.27402 59.8239 4.17753 59.8991L3.97734 60.0795H0.136268L0.132324 0H53.4754ZM3.94205 3.7469V4.04833L3.96132 56.2998L10.6075 51.3938C10.89 51.1855 11.2764 50.8645 11.5627 50.7097L19.1831 56.2992C19.481 56.1298 19.8407 55.8342 20.133 55.6181L26.8034 50.7107L28.7137 52.0958C29.3496 52.5645 29.9847 53.0327 30.6186 53.5039L34.4238 56.299C35.4407 55.7094 41.3237 51.0957 42.0442 50.7113L49.6387 56.299C49.6974 55.9053 49.6648 55.3291 49.665 54.9164L49.6646 3.74759L3.94205 3.7469Z" fill="#1253A2"/>
<path fill-rule="evenodd" clip-rule="evenodd" d="M11.5627 11.9103L11.566 15.0158L42.04 15.016L42.0443 11.2606L11.5629 11.2611L11.5627 11.9103Z" fill="black"/>
<path fill-rule="evenodd" clip-rule="evenodd" d="M11.5624 37.7257L11.5652 41.3015L26.7992 41.3007L26.8032 37.546L11.5629 37.5459L11.5624 37.7257Z" fill="#1253A2"/>
<path fill-rule="evenodd" clip-rule="evenodd" d="M11.5623 22.7059L11.563 26.2807L26.7999 26.2809L26.8038 22.5262L11.5622 22.526L11.5623 22.7059Z" fill="#1253A2"/>
<path fill-rule="evenodd" clip-rule="evenodd" d="M11.5627 30.6851L11.566 33.7906L26.7992 33.7908L26.8033 30.0356L11.5629 30.0359L11.5627 30.6851Z" fill="#1253A2"/>
<path fill-rule="evenodd" clip-rule="evenodd" d="M34.4237 30.4505L34.4264 33.7913L42.04 33.7908L42.0443 30.0354L34.4241 30.036L34.4237 30.4505Z" fill="black"/>
<path fill-rule="evenodd" clip-rule="evenodd" d="M34.4234 37.7257L34.4241 41.3005L42.04 41.3007L42.0442 37.5463L34.4234 37.5459L34.4234 37.7257Z" fill="black"/>
<path fill-rule="evenodd" clip-rule="evenodd" d="M34.4239 23.4099L34.4268 26.2807L42.04 26.2808L42.044 22.5262L34.4241 22.526L34.4239 23.4099Z" fill="black"/>
</g>
<defs>
<clipPath id="clip0_1_188">
<rect width="53.7794" height="61" fill="white" transform="translate(0.132324)"/>
</clipPath>
</defs>
</svg>
