<svg width="61" height="53" viewBox="0 0 61 53" fill="none" xmlns="http://www.w3.org/2000/svg">
<g clip-path="url(#clip0_1_202)">
<path fill-rule="evenodd" clip-rule="evenodd" d="M16.9514 5.60156C16.9007 5.7536 16.5819 5.92839 16.4254 6.0609C15.2813 7.03007 14.1935 8.02199 13.2375 9.16655C13.1123 9.31653 12.838 9.67185 12.713 9.7196L10.8038 12.4223C10.4913 13.1125 9.79239 13.9815 9.54726 14.7766C9.28566 14.9963 8.33841 17.5726 8.15343 18.1514C7.73975 19.4454 7.49421 20.6166 7.22757 22.0493L1.91414 21.285L0.970581 21.1886V21.1923L2.06093 22.6855C2.40519 23.2019 3.67985 24.83 3.89067 25.2602C4.39889 25.8911 4.82674 26.585 5.34261 27.2572C5.60997 27.6057 5.80815 27.915 6.05259 28.251C6.27009 28.5499 6.62052 28.9743 6.77521 29.3013C6.9393 29.4135 7.17048 29.7763 7.2965 29.9533C7.4667 30.1923 7.62612 30.4115 7.78584 30.6428C8.05281 31.0295 8.63926 31.7291 8.76318 32.0873C8.88221 32.1354 9.43121 32.948 9.5315 33.0856L10.3476 34.1922C10.7079 33.8408 11.8385 32.0865 11.9984 32.0222C12.1241 31.7249 13.8528 29.2904 14.0812 29.1834C14.1391 28.8957 14.5399 28.4553 14.7271 28.2044L16.8718 25.2592C17.0255 24.9409 18.1433 23.4931 18.434 23.0733C18.5646 22.8849 18.8146 22.4474 19.034 22.3504C19.0724 22.1592 19.049 22.2392 19.1767 22.0474L19.7734 21.2196L19.6038 21.19L18.8027 21.3168C18.5521 21.3799 18.2096 21.4282 17.9441 21.3946L15.5997 21.7887C14.7882 21.9029 13.9652 22.0567 13.1521 22.1507C13.2618 21.4686 13.458 20.7842 13.6462 20.178L14.3143 18.2915C14.4269 18.1895 14.9153 17.0818 15.0272 16.8506C15.4956 15.8823 17.0074 13.6418 17.7776 12.8585C18.1915 12.4374 18.4505 12.1079 18.8566 11.7088C19.4802 11.0961 22.1402 8.92799 22.7735 8.82229C22.9174 8.57448 23.3673 8.41067 23.6301 8.27387C23.9413 8.11191 24.3095 7.89094 24.6163 7.79932C25.7089 7.34904 26.5963 6.95336 27.8704 6.59969C28.6205 6.39147 30.9729 5.84522 31.7674 5.95252C31.9061 5.85482 31.9861 5.8808 32.205 5.8612C32.6692 5.85973 36.0945 5.7658 36.5597 6.07696C37.1243 5.9788 40.1411 6.73354 40.5258 6.98257C41.1093 7.11793 41.558 7.34782 42.0932 7.56672C42.2841 7.64473 42.4341 7.69132 42.5754 7.83975C42.8584 7.85903 44.5103 8.75995 44.6199 8.92606C45.0294 9.07316 45.3467 9.34042 45.6728 9.57255C46.4497 10.1254 46.9421 10.584 47.5197 11.0077C47.7396 11.1689 47.7285 11.208 47.9163 11.3959C48.0716 11.5514 48.1977 11.6546 48.3559 11.8107L49.9297 13.5133C50.2456 13.8958 51.108 14.9971 51.2959 15.4925C51.576 15.6772 52.1987 17.0275 52.4413 17.4729C52.7779 18.2636 53.1092 18.9062 53.3835 19.7473C53.6662 20.6138 53.9056 21.4485 54.0828 22.3646C54.5117 24.5829 54.4808 26.1888 54.3784 28.4639C54.2538 29.0448 54.2016 29.7066 54.093 30.3056C53.9865 30.8935 53.8333 31.4759 53.6727 32.0285C53.5233 32.5431 52.723 34.9117 52.4846 35.0815C52.3752 35.4561 51.663 36.8296 51.4341 37.0364C50.4906 38.8163 48.3347 41.0973 46.6481 42.4163C46.3235 42.6702 44.9918 43.7067 44.6231 43.7756C44.5069 43.946 44.3994 43.9809 44.1903 44.097C44.043 44.1787 43.8815 44.2812 43.6909 44.3828C43.3424 44.5688 42.9478 44.7919 42.5728 44.9088C42.404 45.082 41.0299 45.5712 40.6834 45.7188C40.3498 45.7738 39.8359 45.9797 39.4747 46.0851C39.0414 46.2116 38.6386 46.3142 38.1664 46.4215C37.2999 46.6185 36.2099 46.7702 35.2575 46.8324L35.05 46.8607C34.4376 46.8617 33.86 46.9105 33.2609 46.8956C32.6865 46.8813 32.1088 46.815 31.5447 46.7952C31.2874 46.7703 30.8743 46.7659 30.7111 46.6386C29.9802 46.7356 27.3438 45.9718 26.662 45.7029C26.4608 45.649 26.3555 45.6053 26.1575 45.5339C25.9429 45.4565 25.8344 45.4351 25.6653 45.2725C25.2472 45.2748 23.0946 44.1483 22.7777 43.867C22.3687 43.7412 21.1208 42.796 20.7163 42.4983C20.3096 42.1989 18.9568 41.0018 18.7343 40.9384C18.7118 41.1262 18.4649 41.2867 18.3135 41.4349C18.1315 41.6132 17.9995 41.7441 17.818 41.9227L15.309 44.3959C15.1519 44.5509 14.9704 44.8198 14.7721 44.8431C14.8297 45.1015 14.7557 44.9643 14.9639 45.1783L16.8144 46.8669L19.1214 48.4972C19.408 48.6845 19.6693 48.8075 19.9085 49.0081C20.1412 49.08 20.6143 49.3835 20.8614 49.5132C21.1998 49.6909 21.6052 49.8473 21.8275 50.0753L24.6844 51.2152C31.2097 53.5836 38.5983 53.1492 44.8751 50.3033C45.3545 50.0859 45.7472 49.8727 46.2004 49.6565C46.5033 49.5119 47.2969 48.9905 47.5086 48.9626L47.6625 48.8194C47.9003 48.6284 49.4225 47.6777 50.109 47.1287C50.2442 47.0206 50.343 46.9074 50.4933 46.8461C52.1339 45.4355 52.9709 44.6694 54.2934 43.1155L54.5241 42.8902L56.5781 39.9753C56.7781 39.3947 58.2997 37.2114 59.1745 34.2629C59.7284 32.3963 60.0453 31.0741 60.2476 29.1446C60.287 28.7688 60.334 27.4422 60.4019 27.2348V25.1861C60.3268 24.9951 60.1455 22.6583 60.0622 22.1522C59.8944 21.1328 59.7034 20.2841 59.4456 19.3647C58.4946 15.9725 56.4262 11.8158 54.0972 9.34058L53.2966 8.43844C52.9292 7.99493 51.6259 6.82999 51.5451 6.73405L51.4455 6.66211L50.5972 5.95781C48.8971 4.56281 46.2763 2.91464 44.2467 2.13216C41.2776 0.987602 38.3376 0.0860577 34.7149 0.00913032C30.9315 -0.0712136 27.8306 0.374379 24.5576 1.51709C21.8621 2.45831 20.0794 3.46959 17.8523 4.99119C17.5717 5.18281 17.2719 5.44014 16.9514 5.60156Z" fill="#1253A2"/>
<path fill-rule="evenodd" clip-rule="evenodd" d="M42.5336 18.1082L41.5848 18.5137C40.9886 18.772 40.2577 19.0125 39.6752 19.3118L34.714 21.3589C34.2205 21.4913 32.9859 22.1034 32.6833 22.1108C32.6348 22.1537 32.6359 22.1579 32.5531 22.2069C32.0659 22.4948 31.0137 22.6921 30.5381 23.2871C30.0433 23.9061 29.7975 24.7036 29.4835 25.5625C29.1852 26.3782 28.8795 27.1784 28.6032 27.9524C28.3269 28.7262 27.9036 29.6787 27.7122 30.4604C27.5524 30.6262 27.2924 31.5761 27.2444 31.892C27.1423 32.7294 27.4797 33.5547 27.914 33.975C28.5244 34.5659 28.7032 34.7237 29.6986 35.0544L30.092 35.1215C30.928 35.1888 31.5221 34.9808 32.0331 34.587C32.2552 34.4158 32.4321 34.1857 32.6018 33.909C32.7494 33.6683 32.9017 33.2101 33.0099 33.0634C33.0831 32.7319 33.2436 32.3982 33.3436 32.1016C33.3955 31.948 33.4595 31.7769 33.5165 31.6273C33.5402 31.565 33.5874 31.4269 33.6049 31.3894L33.7461 31.1737C33.7443 30.8291 34.7478 28.3914 34.9415 27.8243C35.1625 27.1769 35.0935 27.3523 36.2913 26.8698L41.245 24.9202C42.3235 24.4901 43.491 23.9843 44.5535 23.621C44.9088 23.5066 45.2505 23.3471 45.6313 23.1957C45.8419 23.1119 45.9906 23.05 46.17 22.9425C46.3682 22.8237 46.4291 22.7352 46.5993 22.6455C46.7284 22.4595 46.62 22.5585 46.8279 22.4536C46.8591 22.323 46.8047 22.4626 46.8803 22.3343C46.897 22.3061 46.9384 22.2543 46.9592 22.2267C47.8138 21.0924 47.5631 19.4594 46.6408 18.4481C46.4964 18.2898 46.361 18.1852 46.2448 18.0469C45.964 17.9139 45.8588 17.7904 45.521 17.6674C45.179 17.5429 44.9976 17.5252 44.6196 17.5102C43.7045 17.5139 43.2871 17.898 42.5336 18.1082Z" fill="black"/>
</g>
<defs>
<clipPath id="clip0_1_202">
<rect width="59.8676" height="53" fill="white" transform="translate(0.970581)"/>
</clipPath>
</defs>
</svg>
